<svg width="551" height="319" viewBox="0 0 551 319" fill="none" xmlns="http://www.w3.org/2000/svg">
<g filter="url(#filter0_d)">
<path d="M4 28C4 23.0294 8.26303 19 13.5217 19H37.8551C43.1138 19 47.3768 23.0294 47.3768 28V263C47.3768 267.971 43.1138 272 37.8551 272H13.5217C8.26303 272 4 267.971 4 263V28Z" fill="#C4C4C4"/>
<path d="M4 272V231H223V272H4Z" fill="#C4C4C4"/>
<path d="M4 97V56H223V97H4Z" fill="#C4C4C4"/>
</g>
<rect x="237" y="20" width="179" height="126" rx="23" fill="#C4C4C4"/>
<path d="M300.5 0L361.555 51H239.445L300.5 0Z" fill="#C4C4C4"/>
<rect x="237" width="63" height="40" rx="16" fill="#C4C4C4"/>
<rect x="274" width="26" height="56" fill="#C4C4C4"/>
<rect x="237" y="47" width="26" height="56" transform="rotate(-90 237 47)" fill="#C4C4C4"/>
<rect x="237" y="184" width="179" height="126" rx="23" fill="#C4C4C4"/>
<path d="M300.5 164L361.555 215H239.445L300.5 164Z" fill="#C4C4C4"/>
<rect x="237" y="164" width="63" height="40" rx="16" fill="#C4C4C4"/>
<rect x="274" y="164" width="26" height="56" fill="#C4C4C4"/>
<rect x="237" y="211" width="26" height="56" transform="rotate(-90 237 211)" fill="#C4C4C4"/>
<g filter="url(#filter1_dd)">
<path d="M493.657 22.3396C490.533 19.2154 485.467 19.2154 482.343 22.3396L431.431 73.2513C428.307 76.3755 428.307 81.4408 431.431 84.565C434.556 87.6892 439.621 87.6892 442.745 84.565L488 39.3101L533.255 84.565C536.379 87.6892 541.444 87.6892 544.569 84.565C547.693 81.4408 547.693 76.3755 544.569 73.2513L493.657 22.3396ZM496 310.004V27.9964H480V310.004H496Z" fill="#C4C4C4"/>
</g>
<defs>
<filter id="filter0_d" x="0" y="19" width="227" height="261" filterUnits="userSpaceOnUse" color-interpolation-filters="sRGB">
<feFlood flood-opacity="0" result="BackgroundImageFix"/>
<feColorMatrix in="SourceAlpha" type="matrix" values="0 0 0 0 0 0 0 0 0 0 0 0 0 0 0 0 0 0 127 0"/>
<feOffset dy="4"/>
<feGaussianBlur stdDeviation="2"/>
<feColorMatrix type="matrix" values="0 0 0 0 0 0 0 0 0 0 0 0 0 0 0 0 0 0 0.25 0"/>
<feBlend mode="normal" in2="BackgroundImageFix" result="effect1_dropShadow"/>
<feBlend mode="normal" in="SourceGraphic" in2="effect1_dropShadow" result="shape"/>
</filter>
<filter id="filter1_dd" x="425.088" y="19.9965" width="125.823" height="298.007" filterUnits="userSpaceOnUse" color-interpolation-filters="sRGB">
<feFlood flood-opacity="0" result="BackgroundImageFix"/>
<feColorMatrix in="SourceAlpha" type="matrix" values="0 0 0 0 0 0 0 0 0 0 0 0 0 0 0 0 0 0 127 0"/>
<feOffset dy="4"/>
<feGaussianBlur stdDeviation="2"/>
<feColorMatrix type="matrix" values="0 0 0 0 0 0 0 0 0 0 0 0 0 0 0 0 0 0 0.25 0"/>
<feBlend mode="normal" in2="BackgroundImageFix" result="effect1_dropShadow"/>
<feColorMatrix in="SourceAlpha" type="matrix" values="0 0 0 0 0 0 0 0 0 0 0 0 0 0 0 0 0 0 127 0"/>
<feOffset dy="4"/>
<feGaussianBlur stdDeviation="2"/>
<feColorMatrix type="matrix" values="0 0 0 0 0 0 0 0 0 0 0 0 0 0 0 0 0 0 0.25 0"/>
<feBlend mode="normal" in2="effect1_dropShadow" result="effect2_dropShadow"/>
<feBlend mode="normal" in="SourceGraphic" in2="effect2_dropShadow" result="shape"/>
</filter>
</defs>
</svg>
