<?xml version="1.0" encoding="utf-8"?>
<!-- Generator: Adobe Illustrator 16.0.0, SVG Export Plug-In . SVG Version: 6.00 Build 0)  -->
<!DOCTYPE svg PUBLIC "-//W3C//DTD SVG 1.1//EN" "http://www.w3.org/Graphics/SVG/1.1/DTD/svg11.dtd" [
	<!ENTITY ns_extend "http://ns.adobe.com/Extensibility/1.0/">
	<!ENTITY ns_ai "http://ns.adobe.com/AdobeIllustrator/10.0/">
	<!ENTITY ns_graphs "http://ns.adobe.com/Graphs/1.0/">
	<!ENTITY ns_vars "http://ns.adobe.com/Variables/1.0/">
	<!ENTITY ns_imrep "http://ns.adobe.com/ImageReplacement/1.0/">
	<!ENTITY ns_sfw "http://ns.adobe.com/SaveForWeb/1.0/">
	<!ENTITY ns_custom "http://ns.adobe.com/GenericCustomNamespace/1.0/">
	<!ENTITY ns_adobe_xpath "http://ns.adobe.com/XPath/1.0/">
]>
<svg version="1.1" id="Layer_1" xmlns:x="&ns_extend;" xmlns:i="&ns_ai;" xmlns:graph="&ns_graphs;"
	 xmlns="http://www.w3.org/2000/svg" xmlns:xlink="http://www.w3.org/1999/xlink" x="0px" y="0px" width="128px" height="69.72px"
	 viewBox="0 0 128 69.72" style="enable-background:new 0 0 128 69.72;" xml:space="preserve">
<style type="text/css">
<![CDATA[
	.st0{fill-rule:evenodd;clip-rule:evenodd;fill:#ABABAB;}
]]>
</style>
<metadata>
	<sfw  xmlns="&ns_sfw;">
		<slices></slices>
		<sliceSourceBounds  width="127.66" height="69.72" y="-97.89" x="0.34" bottomLeftOrigin="true"></sliceSourceBounds>
	</sfw>
</metadata>
<g>
	<g>
		<path class="st0" d="M2.58,3.57h5.56c1.23,0,2.24,1.01,2.24,2.24v57.01H0.34V5.81C0.34,4.58,1.35,3.57,2.58,3.57z"/>
		<rect x="10.38" y="53.28" class="st0" width="41.5" height="9.54"/>
		<rect x="10.38" y="11.98" class="st0" width="41.5" height="9.73"/>
	</g>
	<path class="st0" d="M112.49,69.09L112.49,69.09l-11.68-11.34c-0.87-0.85-0.87-2.22,0-3.07c0.88-0.85,2.3-0.84,3.18,0.01l7.84,7.61
		V3.54h4.49V62.3l7.84-7.61c0.87-0.85,2.3-0.85,3.18-0.01c0.88,0.85,0.88,2.22,0.01,3.07l-11.67,11.34h-0.01
		C114.79,69.94,113.37,69.93,112.49,69.09z"/>
	<path class="st0" d="M97.71,26.69v2.44c0,1.55-1.27,2.81-2.81,2.81H58.06c-1.55-0.01-2.81-1.26-2.81-2.81V2.81
		c0-1.55,1.26-2.81,2.81-2.81h14.36l3.61,4.28c0.12,0.14,0.29,0.22,0.48,0.22h18.42c1.52,0.02,2.75,1.26,2.77,2.79V26.69z"/>
	<path class="st0" d="M97.25,64.48v2.43c-0.01,1.55-1.26,2.81-2.81,2.81H57.61c-1.55,0-2.81-1.26-2.81-2.81V40.6
		c0-1.55,1.26-2.81,2.81-2.81h14.36l3.61,4.28c0.12,0.15,0.29,0.22,0.48,0.22h18.42c1.52,0.03,2.75,1.27,2.77,2.79V64.48z"/>
</g>
</svg>
